# xmcd
#
# Track frame offsets:
#	150
#	9645
#	18670
#	28696
#	38861
#	46530
#	53692
#	63744
#	74069
#	80896
#	90241
#	99760
#	109248
#	119133
#	127952
#	136504
#	142651
#	151942
#	162908
#	173282
#	177695
#	188225
#	198377
#	208241
#	217919
#	227774
#	234115
#	241756
#	249641
#	257089
#	266944
#	276467
#	286331
#	298818
#	310193
#	319193
#
# Disc length: 4422 seconds
#
# Revision: 1
# Processed by: cddbd v1.5.2PL0 Copyright (c) Steve Scherf et al.
# Submitted via: audiograbber 1.83.01
#
DISCID=0a114424
DTITLE=Various Artist - Memphis Rockabillies, Hillbillies and Honky Tonkers (Vol
DTITLE=5)
DYEAR=2006
DGENRE=Rock and Roll
TTITLE0=Roy Alden - Crazy Memories
TTITLE1=Jimmy Evans - Pink Cadillac
TTITLE2=Jay Hadley - Dance Baby Dance
TTITLE3=Curtis Little - She Won't Let Me Down
TTITLE4=Marcus Van Story - Get With It
TTITLE5=Jimmy Evans - What Am I Gonna Do
TTITLE6=Roy Jones - Your Pilot Light Went Out
TTITLE7=Jay Hadley - She Knows How To Rock Me
TTITLE8=Tiny Fuller - Cocklebur
TTITLE9=Paul Little - Hollywood
TTITLE10=Jimmy Evans - American Sound Stomp
TTITLE11=Malcolm Yelvington - Goodbye Marie
TTITLE12=Bill Scott Davis - Moving South
TTITLE13=Roland Eaton - Don't Call Me I'll Call You
TTITLE14=Jimmy Evans - John's Place
TTITLE15=Thomas Jernigan - Whole Lot Of You On My Mind
TTITLE16=Jay Hadley - Cotton Land Jump
TTITLE17=Jimmy Evans - Little Susie
TTITLE18=Jay Hadley - Country Beat For A Saturday Night
TTITLE19=Tiny Fuller - Hot Top
TTITLE20=Malcolm Yelvington - Way Down Blues
TTITLE21=Jimmy Evans - I Hate To Say Goodbye
TTITLE22=Red Hadley - Rockin' With Red
TTITLE23=Jimmy Evans - 706 Union Breakdown
TTITLE24=Jay Hadley - Country Shortnin' Bread
TTITLE25=Tommy Peairce - Part Time Man
TTITLE26=Jimmy Evans - Johnny B. Goode
TTITLE27=Tiny Fuller - Mystery Train
TTITLE28=Jim Waldrop - It Don't Hurt Much Anymore
TTITLE29=Lannie-Lee - Coming Home
TTITLE30=Tommy Peairce - Take Me To Your Leader
TTITLE31=Gail Ayers - Beans And Cornbread
TTITLE32=Jim Waldrop - Wino Of The Year
TTITLE33=Curtis Little - Where Is Linda
TTITLE34=Jimmy Evans - Pink Cadillac (alternate)
TTITLE35=Jimmy Evans - Memphis 1955
EXTD=
EXTT0=
EXTT1=
EXTT2=
EXTT3=
EXTT4=
EXTT5=
EXTT6=
EXTT7=
EXTT8=
EXTT9=
EXTT10=
EXTT11=
EXTT12=
EXTT13=
EXTT14=
EXTT15=
EXTT16=
EXTT17=
EXTT18=
EXTT19=
EXTT20=
EXTT21=
EXTT22=
EXTT23=
EXTT24=
EXTT25=
EXTT26=
EXTT27=
EXTT28=
EXTT29=
EXTT30=
EXTT31=
EXTT32=
EXTT33=
EXTT34=
EXTT35=
PLAYORDER=
